PathFileType	4	(X/Y/Z)	C:\Users\WrightLab\Desktop\Jo\P2_Trial23.trc
DataRate	CameraRate	NumFrames	NumMarkers	Units	OrigDataRate	OrigDataStartFrame	OrigNumFrames
100.00	100.00	      18	19	mm	100.00	153	      1217
Frame#	Time	Headset_Front			Headset_Back			Headset_Left			Headset_Right			Left_Shoulder			Right_Shoulder			Sternum			C7			Left Elbow			Right Elbow			Left Wrist			Right Wrist			Left ASIS			Right ASIS			S2			Left Knee			Right Knee			Left Ankle			Right Ankle			
		X1	Y1	Z1	X2	Y2	Z2	X3	Y3	Z3	X4	Y4	Z4	X5	Y5	Z5	X6	Y6	Z6	X7	Y7	Z7	X8	Y8	Z8	X9	Y9	Z9	X10	Y10	Z10	X11	Y11	Z11	X12	Y12	Z12	X13	Y13	Z13	X14	Y14	Z14	X15	Y15	Z15	X16	Y16	Z16	X17	Y17	Z17	X18	Y18	Z18	X19	Y19	Z19	

153	1.520							-264.60510	1548.01733	1710.01868										-149.60249	1675.39209	1687.74207	-108.27538	1483.51831	1861.30750										236.19778	977.80432	1905.21155							-120.96124	1007.80652	2023.43176	-221.75917	487.76648	1835.07690	125.69907	585.48999	1918.91150	-170.03110	136.30498	1827.10925	248.83063	176.59520	1850.33765	
154	1.530							-264.29196	1547.88843	1708.25476										-149.82829	1675.19031	1686.94263	-108.15861	1483.85645	1860.19080										236.76622	977.82751	1909.14893							-120.86591	1008.38458	2022.69470	-221.38538	487.82245	1834.78674	127.98051	586.31348	1921.35132	-170.01509	135.53954	1826.58862	246.34302	175.90060	1852.10645	
155	1.540							-263.65762	1547.34644	1705.55823										-149.38849	1674.71448	1684.99646	-108.27724	1484.17542	1859.69067										236.45515	978.90045	1910.88416							-120.36452	1008.35358	2021.41187	-221.07495	487.73941	1834.44458	129.16951	586.16260	1922.11292	-170.04787	135.51668	1826.58521	243.81183	174.68976	1855.03662	
156	1.550							-263.99664	1547.11987	1704.45740										-148.79291	1674.48889	1682.71973	-108.18660	1484.25940	1858.78345										236.01874	979.09949	1911.87488							-120.26257	1008.70374	2020.88269	-220.81236	487.68756	1834.16895	129.75356	585.96130	1921.96753	-170.06223	135.48654	1826.59790	242.78691	173.49936	1856.88867	
157	1.560							-263.58679	1546.69031	1702.09436										-148.70131	1674.26111	1681.64307	-108.18639	1484.05566	1857.73267										235.92171	979.33221	1912.26978							-119.69305	1008.33801	2020.03711	-220.48784	487.63293	1833.83643	132.36554	585.16943	1921.99756	-170.21776	134.68378	1826.24390	241.74571	172.74666	1859.88647	
158	1.570							-263.34546	1546.28235	1700.47131										-148.16162	1673.44299	1680.01782	-108.07059	1483.96582	1856.46777										235.69391	979.90204	1915.61877							-119.13755	1008.21698	2019.27441	-220.15108	487.70383	1833.72681	133.28854	585.71338	1922.47412	-170.22467	134.63280	1826.27588	241.68684	171.50397	1862.09277	
159	1.580							-262.90903	1545.90320	1698.77026										-148.12679	1673.35498	1679.10913	-107.78937	1483.67102	1855.43018										235.69623	979.56012	1917.74036							-118.70572	1008.50146	2019.07642	-219.81380	487.74738	1833.66345	136.46638	586.16266	1924.02405	-170.25394	134.61665	1826.26965	241.82083	171.44655	1862.09595	
160	1.590							-262.32098	1545.51868	1697.01282										-147.79060	1673.34229	1677.71240	-107.59695	1483.61511	1854.35974										235.39809	980.14301	1919.96777							-118.23380	1008.89301	2018.74023	-219.46361	487.69046	1833.38416	138.29076	586.54340	1924.40027	-170.23055	134.57053	1826.31641	242.12469	171.12100	1862.32837	
161	1.600							-261.98300	1545.33289	1695.96509										-147.28622	1673.01746	1676.26575	-106.87366	1483.20776	1852.76208										235.27609	979.96130	1922.30774							-117.89926	1009.36804	2018.62292	-219.01782	487.60220	1833.11731	140.63603	587.16168	1925.56482	-170.28096	134.55803	1826.29492	242.86752	171.84933	1863.08228	
162	1.610							-261.62512	1545.14392	1695.10461										-147.37392	1672.94714	1675.95093	-106.67989	1483.50647	1852.14893										234.88782	979.53033	1923.62012							-117.26228	1009.65094	2017.74658	-218.54193	487.56302	1832.76074	141.88106	587.06287	1925.19971	-170.30649	134.55399	1826.28247	243.82993	172.07156	1864.54041	
163	1.620							-261.41675	1544.96753	1694.52673										-147.17714	1672.84082	1675.09692	-106.46208	1484.18005	1851.61523										234.37480	979.51190	1924.40210							-116.69092	1010.05469	2017.00195	-218.22990	487.66376	1832.46753	144.42023	587.50891	1926.65308	-170.35992	134.56966	1826.23926	244.29463	170.97041	1865.51709	
164	1.630							-260.77966	1544.79297	1693.05469										-146.45868	1672.67590	1673.36560	-106.17268	1484.42810	1851.08679										233.82536	979.43829	1925.13318							-116.20243	1010.03442	2016.52319	-217.82449	487.68317	1831.96411	145.24980	587.42358	1927.28271	-170.38707	134.59669	1826.20374	244.63277	171.22847	1867.95276	
165	1.640							-260.47250	1544.50293	1692.45691										-146.36050	1672.90735	1672.64954	-105.76338	1484.50842	1850.70630										233.54256	979.57129	1925.79016							-115.89902	1010.11591	2015.89453	-217.50481	487.75699	1831.21838	147.22990	587.87567	1928.29236	-170.41394	134.64645	1826.15234	245.17920	171.10965	1868.47876	
166	1.650							-259.73163	1544.21313	1690.87708										-146.12445	1672.90881	1671.76379	-105.02792	1484.74426	1849.67505										233.07088	980.21393	1927.51807							-115.78795	1010.22296	2015.55139	-217.27386	487.91248	1830.64856	149.32121	587.60760	1929.33240	-170.45113	134.69400	1826.09619	245.41167	171.02867	1868.67749	
167	1.660							-259.73529	1544.25085	1690.85120										-145.62842	1672.36255	1670.63098	-104.27986	1484.51416	1848.52063										232.60941	980.76343	1929.33301							-115.69144	1010.49078	2015.27148	-216.97197	488.13351	1829.56616	150.35486	588.54901	1931.11255	-170.47977	134.74352	1826.04395	246.01944	170.51431	1869.01599	
168	1.670							-258.97913	1543.80627	1689.45313										-145.67688	1672.70313	1670.11108	-104.06362	1484.61963	1848.28198										232.07018	981.76599	1930.11951							-115.61858	1010.81067	2014.88672	-216.69971	488.33087	1828.38147	151.52003	588.16669	1931.15942	-170.51762	134.80518	1825.97742	247.21858	170.54745	1871.51404	
169	1.680							-258.65378	1543.85901	1688.77161										-145.13301	1672.96387	1668.50098	-103.66068	1484.82043	1847.42456										230.99417	982.37012	1930.28967							-115.13877	1010.65424	2013.84753	-216.28246	488.46500	1827.11499	152.27293	588.13452	1932.08838	-170.55569	134.84547	1825.92603	247.38200	170.38434	1871.70203	
170	1.690							-258.11749	1543.93738	1687.66882										-144.54553	1672.75024	1666.71692	-103.68479	1485.24841	1847.25671										229.52327	982.40991	1931.76868							-115.19375	1011.00006	2013.71106	-215.91208	488.63278	1825.94482	152.50455	588.26703	1931.91870	-170.56696	134.87888	1825.89551	247.56912	170.15222	1871.90637	
